<?xml version="1.0" encoding="UTF-8" standalone="no"?>
<svg
   xmlns:osb="http://www.openswatchbook.org/uri/2009/osb"
   xmlns:dc="http://purl.org/dc/elements/1.1/"
   xmlns:cc="http://creativecommons.org/ns#"
   xmlns:rdf="http://www.w3.org/1999/02/22-rdf-syntax-ns#"
   xmlns:svg="http://www.w3.org/2000/svg"
   xmlns="http://www.w3.org/2000/svg"
   xmlns:xlink="http://www.w3.org/1999/xlink"
   xmlns:sodipodi="http://sodipodi.sourceforge.net/DTD/sodipodi-0.dtd"
   xmlns:inkscape="http://www.inkscape.org/namespaces/inkscape"
   id="svg8"
   version="1.1"
   viewBox="0 0 182.20764 117.34265"
   sodipodi:docname="ruempelClean_logo_bold_light.svg"
   inkscape:version="0.92.4 (5da689c313, 2019-01-14)"
   inkscape:export-filename="C:\Users\d074114\Documents\Private Stuff\TexSoWeb\Karim\logo VEKTOR DUNKELBLAU_v2.png"
   inkscape:export-xdpi="400"
   inkscape:export-ydpi="400"
   width="182.20764"
   height="117.34265">
  <sodipodi:namedview
     pagecolor="#ffffff"
     bordercolor="#666666"
     borderopacity="1"
     objecttolerance="10"
     gridtolerance="10"
     guidetolerance="10"
     inkscape:pageopacity="0"
     inkscape:pageshadow="2"
     inkscape:window-width="1920"
     inkscape:window-height="1178"
     id="namedview38"
     showgrid="false"
     inkscape:zoom="2.0719103"
     inkscape:cx="-116.05673"
     inkscape:cy="47.691767"
     inkscape:window-x="-8"
     inkscape:window-y="-8"
     inkscape:window-maximized="1"
     inkscape:current-layer="layer1"
     showborder="true"
     borderlayer="false"
     fit-margin-top="0"
     fit-margin-left="0"
     fit-margin-right="0"
     fit-margin-bottom="0" />
  <defs
     id="defs2">
    <linearGradient
       osb:paint="gradient"
       id="linearGradient5998">
      <stop
         id="stop5994"
         offset="0"
         style="stop-color:#808080;stop-opacity:1;" />
      <stop
         id="stop5996"
         offset="1"
         style="stop-color:#808080;stop-opacity:0;" />
    </linearGradient>
    <linearGradient
       gradientUnits="userSpaceOnUse"
       y2="348.46799"
       x2="640.22327"
       y1="348.46799"
       x1="225.78828"
       id="linearGradient6002"
       xlink:href="#linearGradient5998" />
  </defs>
  <metadata
     id="metadata5">
    <rdf:RDF>
      <cc:Work
         rdf:about="">
        <dc:format>image/svg+xml</dc:format>
        <dc:type
           rdf:resource="http://purl.org/dc/dcmitype/StillImage" />
        <dc:title></dc:title>
      </cc:Work>
    </rdf:RDF>
  </metadata>
  <g
     id="layer1"
     transform="translate(-6.9821996,-83.225471)">
    <path
       d="m 42.416995,102.87986 -0.137512,-4.999784 -12.328199,0.130278 -0.01655,15.143936 c -22.469888,22.66005 0,0 -22.9525344,23.02203 l 18.1338364,0.0288 0.149399,44.56161 85.390065,0.10881 78.53434,-1.3025 -78.5451,-3.02961 -81.325913,-0.60331 -0.0972,-44.57705 -11.809183,0.0644 16.971984,-17.07651 0.108911,-12.56414 3.829794,-0.0206 0.166691,9.84858 L 68.093531,88.564892 97.503099,100.272 67.774188,83.225471 Z"
       style="fill:#009cff;fill-opacity:1;fill-rule:evenodd;stroke:none;stroke-width:0.1;stroke-miterlimit:4;stroke-dasharray:none;stroke-opacity:1"
       id="path4518"
       inkscape:connector-curvature="0"
       inkscape:export-xdpi="400"
       inkscape:export-ydpi="400"
       sodipodi:nodetypes="ccccccccccccccccccccc" />
    <path
       style="fill:#2b7c18;fill-opacity:1;stroke-width:0.93960291"
       d="m 216.36133,686.81641 a 35.642827,35.617559 0 0 0 -35.64258,35.61914 35.642827,35.617559 0 0 0 35.64258,35.61718 35.642827,35.617559 0 0 0 11.92578,-2.09961 l 41.73828,-10.57617 -29.93359,3.58399 a 35.642827,35.617559 0 0 0 0.13281,-0.12305 l 42.32227,-11.89062 -36.84961,5.64843 a 35.642827,35.617559 0 0 0 6.30664,-20.16015 35.642827,35.617559 0 0 0 -35.64258,-35.61914 z m 0.23633,10.21093 a 25.229513,24.787715 0 0 1 25.22851,24.78711 25.229513,24.787715 0 0 1 -25.22851,24.78907 25.229513,24.787715 0 0 1 -25.23047,-24.78907 25.229513,24.787715 0 0 1 25.23047,-24.78711 z m -5.6836,7.34571 c -6.21325,-0.15102 -12.60383,4.84041 -13.44922,9.76172 -1.04047,6.05703 -0.97796,9.17065 4.20118,15.16211 -1.87092,-5.63558 -1.07313,-9.4518 0.41015,-13.60157 1.48328,-4.14977 4.65178,-9.6112 13.04102,-10.33203 -1.34452,-0.64661 -2.7693,-0.95538 -4.20313,-0.99023 z"
       transform="scale(0.26458333)"
       id="path6032"
       inkscape:export-xdpi="400"
       inkscape:export-ydpi="400"
       inkscape:connector-curvature="0" />
    <g
       aria-label="Rümpel Clean"
       style="font-size:3.17499995px;fill:#2b7c18;fill-opacity:0.98431373;stroke-width:0.26458332"
       id="text4533">
      <path
         d="m 43.580603,140.94124 v -15.49797 h 6.63575 q 1.025922,0 1.877218,0.43656 0.873125,0.41474 1.484313,1.13506 0.633016,0.6985 0.982266,1.59346 0.34925,0.87312 0.34925,1.7899 0,0.80764 -0.24011,1.57163 -0.218281,0.74216 -0.654844,1.35334 -0.414734,0.61119 -1.025921,1.04775 -0.58936,0.43657 -1.331516,0.63302 l 3.754437,5.93725 h -2.226468 l -3.536157,-5.56617 h -4.103687 v 5.56617 z m 1.964531,-7.31242 h 4.693047 q 0.611187,0 1.091406,-0.26194 0.502047,-0.26194 0.851297,-0.6985 0.34925,-0.45839 0.545703,-1.04775 0.196453,-0.58936 0.196453,-1.22238 0,-0.65484 -0.240109,-1.22237 -0.218281,-0.58936 -0.611188,-1.02592 -0.371078,-0.45839 -0.894953,-0.6985 -0.502047,-0.26194 -1.069578,-0.26194 h -4.562078 z"
         style="font-size:21.828125px;font-family:'Raleway Medium';fill:#2b7c18;fill-opacity:0.98431373;stroke-width:0.26458332"
         id="path925"
         inkscape:connector-curvature="0" />
      <path
         d="m 59.721137,127.32049 v -2.22647 h 1.615281 v 2.22647 z m 3.536156,0 v -2.22647 h 1.615281 v 2.22647 z m -2.313781,13.83903 q -1.789906,0 -2.706688,-1.20055 -0.916781,-1.20054 -0.916781,-3.57981 v -6.8322 h 1.920875 v 6.46112 q 0,3.4925 2.422922,3.4925 1.178719,0 2.204641,-0.74215 1.04775,-0.76399 1.549797,-2.07368 v -7.13779 h 1.920875 v 9.03684 q 0,0.67667 0.611187,0.6985 v 1.65894 q -0.327422,0.0437 -0.523875,0.0437 -0.174625,0.0218 -0.34925,0.0218 -0.567531,0 -0.960437,-0.32742 -0.371079,-0.34925 -0.392907,-0.8513 l -0.04366,-1.33151 q -0.763984,1.28786 -2.008187,1.98636 -1.244204,0.67667 -2.728516,0.67667 z"
         style="font-size:21.828125px;font-family:'Raleway Medium';fill:#2b7c18;fill-opacity:0.98431373;stroke-width:0.26458332"
         id="path927"
         inkscape:connector-curvature="0" />
      <path
         d="m 87.7389,140.94124 h -1.920875 v -6.37381 q 0,-1.78991 -0.58936,-2.64121 -0.567531,-0.85129 -1.702594,-0.85129 -1.178718,0 -2.117328,0.85129 -0.916781,0.82947 -1.309687,2.16099 v 6.85403 h -1.920875 v -6.37381 q 0,-1.83357 -0.567531,-2.66304 -0.567532,-0.82946 -1.702594,-0.82946 -1.156891,0 -2.0955,0.82946 -0.93861,0.80765 -1.331516,2.16099 v 6.87586 h -1.920875 v -11.39428 h 1.74625 v 2.44475 q 0.6985,-1.26603 1.811735,-1.94271 1.113234,-0.6985 2.510234,-0.6985 1.440656,0 2.270125,0.78582 0.851297,0.76398 1.04775,1.98636 1.527969,-2.77218 4.343797,-2.77218 0.982265,0 1.637109,0.37108 0.676672,0.34925 1.069578,1.0041 0.392907,0.63301 0.567532,1.50614 0.174625,0.87312 0.174625,1.89904 z"
         style="font-size:21.828125px;font-family:'Raleway Medium';fill:#2b7c18;fill-opacity:0.98431373;stroke-width:0.26458332"
         id="path929"
         inkscape:connector-curvature="0" />
      <path
         d="m 96.859304,141.15952 q -1.418828,0 -2.510234,-0.6985 -1.069578,-0.6985 -1.702594,-1.76808 v 6.89769 h -1.920875 v -16.04367 h 1.702594 v 2.13915 q 0.676672,-1.04775 1.74625,-1.68076 1.091406,-0.65485 2.401094,-0.65485 1.178718,0 2.160984,0.48022 0.982266,0.48022 1.702597,1.30969 0.72032,0.80764 1.11323,1.87722 0.41474,1.06958 0.41474,2.22647 0,1.22237 -0.37108,2.31378 -0.37108,1.06958 -1.04775,1.87722 -0.676675,0.78581 -1.615284,1.26603 -0.938609,0.45839 -2.073672,0.45839 z m -0.589359,-1.65894 q 0.851297,0 1.527969,-0.34925 0.6985,-0.37108 1.178718,-0.96044 0.502047,-0.61118 0.763985,-1.37517 0.261933,-0.76398 0.261933,-1.57162 0,-0.8513 -0.30559,-1.61528 -0.305593,-0.78582 -0.829468,-1.35335 -0.523875,-0.58936 -1.244203,-0.91678 -0.6985,-0.34925 -1.527969,-0.34925 -0.523875,0 -1.091406,0.21828 -0.545704,0.19646 -1.04775,0.54571 -0.480219,0.32742 -0.851297,0.80764 -0.34925,0.45839 -0.458391,0.98226 v 3.25239 q 0.240109,0.56753 0.611188,1.06958 0.371078,0.48022 0.851296,0.8513 0.480219,0.34925 1.025922,0.56753 0.545703,0.19645 1.135063,0.19645 z"
         style="font-size:21.828125px;font-family:'Raleway Medium';fill:#2b7c18;fill-opacity:0.98431373;stroke-width:0.26458332"
         id="path931"
         inkscape:connector-curvature="0" />
      <path
         d="m 109.36784,141.15952 q -1.28786,0 -2.35743,-0.45839 -1.06958,-0.48022 -1.83357,-1.28786 -0.76398,-0.80764 -1.20054,-1.87722 -0.41474,-1.09141 -0.41474,-2.29195 0,-1.20055 0.41474,-2.27013 0.43656,-1.06958 1.20054,-1.87722 0.78582,-0.80764 1.85539,-1.26603 1.06958,-0.48022 2.35744,-0.48022 1.28786,0 2.33561,0.48022 1.06958,0.48022 1.81173,1.28786 0.74216,0.78581 1.13507,1.85539 0.41473,1.04775 0.41473,2.18282 0,0.2401 -0.0218,0.43656 0,0.19645 -0.0218,0.30559 h -9.45158 q 0.0655,0.8513 0.3929,1.5498 0.32743,0.6985 0.8513,1.20055 0.52388,0.50204 1.17872,0.78581 0.67667,0.28376 1.41883,0.28376 0.52387,0 1.02592,-0.13097 0.50205,-0.15279 0.93861,-0.3929 0.43656,-0.24011 0.76398,-0.58936 0.34925,-0.34925 0.52388,-0.78581 l 1.65894,0.45839 q -0.28377,0.63301 -0.78582,1.15689 -0.48022,0.52387 -1.13506,0.91678 -0.63302,0.37108 -1.41883,0.58936 -0.78581,0.21828 -1.63711,0.21828 z m 3.90724,-6.67941 q -0.0655,-0.80764 -0.41474,-1.48431 -0.32742,-0.6985 -0.85129,-1.17872 -0.50205,-0.48022 -1.17872,-0.74215 -0.67667,-0.28377 -1.44066,-0.28377 -0.76398,0 -1.44066,0.28377 -0.67667,0.26193 -1.20054,0.76398 -0.50205,0.48022 -0.82947,1.15689 -0.30559,0.67667 -0.37108,1.48431 z"
         style="font-size:21.828125px;font-family:'Raleway Medium';fill:#2b7c18;fill-opacity:0.98431373;stroke-width:0.26458332"
         id="path933"
         inkscape:connector-curvature="0" />
      <path
         d="m 117.28702,125.00671 h 1.92087 v 12.98773 q 0,0.63302 0.32743,1.0041 0.34925,0.34925 0.96043,0.34925 0.24011,0 0.56753,-0.0655 0.32743,-0.0873 0.61119,-0.19645 l 0.3056,1.54979 q -0.48022,0.19646 -1.13507,0.32743 -0.65484,0.13097 -1.15689,0.13097 -1.11323,0 -1.76808,-0.63302 -0.63301,-0.63302 -0.63301,-1.76808 z"
         style="font-size:21.828125px;font-family:'Raleway Medium';fill:#2b7c18;fill-opacity:0.98431373;stroke-width:0.26458332"
         id="path935"
         inkscape:connector-curvature="0" />
      <path
         d="m 127.67209,133.08311 q 0,-1.397 0.48022,-2.77217 0.50205,-1.397 1.44066,-2.4884 0.96043,-1.11324 2.3356,-1.78991 1.37518,-0.67667 3.12143,-0.67667 2.07367,0 3.55798,0.93861 1.48431,0.93861 2.20464,2.44475 l -1.5498,1.00409 q -0.34925,-0.74216 -0.85129,-1.2442 -0.48022,-0.50205 -1.06958,-0.80764 -0.56753,-0.3056 -1.17872,-0.43657 -0.61119,-0.13096 -1.20055,-0.13096 -1.28786,0 -2.29195,0.5457 -0.98226,0.52387 -1.65894,1.397 -0.67667,0.8513 -1.02592,1.9427 -0.32742,1.06958 -0.32742,2.16099 0,1.22237 0.39291,2.33561 0.41473,1.0914 1.13506,1.9427 0.72033,0.8513 1.70259,1.35334 0.98227,0.50205 2.13916,0.50205 0.61119,0 1.2442,-0.1528 0.65485,-0.15279 1.2442,-0.48022 0.58936,-0.34925 1.09141,-0.85129 0.52388,-0.52388 0.8513,-1.24421 l 1.63711,0.89496 q -0.37108,0.87312 -1.04775,1.54979 -0.65485,0.65485 -1.50614,1.11324 -0.82947,0.45839 -1.76808,0.6985 -0.93861,0.24011 -1.83356,0.24011 -1.59346,0 -2.92497,-0.6985 -1.33152,-0.6985 -2.31378,-1.81174 -0.96044,-1.13506 -1.50614,-2.55389 -0.52388,-1.44065 -0.52388,-2.92497 z"
         style="font-size:21.828125px;font-family:'Raleway Medium';fill:#2b7c18;fill-opacity:0.98431373;stroke-width:0.26458332"
         id="path937"
         inkscape:connector-curvature="0" />
      <path
         d="m 143.29318,125.00671 h 1.92088 v 12.98773 q 0,0.63302 0.32742,1.0041 0.34925,0.34925 0.96044,0.34925 0.24011,0 0.56753,-0.0655 0.32742,-0.0873 0.61119,-0.19645 l 0.30559,1.54979 q -0.48022,0.19646 -1.13506,0.32743 -0.65485,0.13097 -1.15689,0.13097 -1.11324,0 -1.76808,-0.63302 -0.63302,-0.63302 -0.63302,-1.76808 z"
         style="font-size:21.828125px;font-family:'Raleway Medium';fill:#2b7c18;fill-opacity:0.98431373;stroke-width:0.26458332"
         id="path939"
         inkscape:connector-curvature="0" />
      <path
         d="m 154.51625,141.15952 q -1.28786,0 -2.35744,-0.45839 -1.06958,-0.48022 -1.83356,-1.28786 -0.76398,-0.80764 -1.20055,-1.87722 -0.41473,-1.09141 -0.41473,-2.29195 0,-1.20055 0.41473,-2.27013 0.43657,-1.06958 1.20055,-1.87722 0.78581,-0.80764 1.85539,-1.26603 1.06958,-0.48022 2.35744,-0.48022 1.28786,0 2.33561,0.48022 1.06958,0.48022 1.81173,1.28786 0.74216,0.78581 1.13506,1.85539 0.41474,1.04775 0.41474,2.18282 0,0.2401 -0.0218,0.43656 0,0.19645 -0.0218,0.30559 h -9.45158 q 0.0655,0.8513 0.39291,1.5498 0.32742,0.6985 0.8513,1.20055 0.52387,0.50204 1.17872,0.78581 0.67667,0.28376 1.41882,0.28376 0.52388,0 1.02593,-0.13097 0.50204,-0.15279 0.93861,-0.3929 0.43656,-0.24011 0.76398,-0.58936 0.34925,-0.34925 0.52387,-0.78581 l 1.65894,0.45839 q -0.28376,0.63301 -0.78581,1.15689 -0.48022,0.52387 -1.13506,0.91678 -0.63302,0.37108 -1.41883,0.58936 -0.78581,0.21828 -1.63711,0.21828 z m 3.90723,-6.67941 q -0.0655,-0.80764 -0.41473,-1.48431 -0.32742,-0.6985 -0.8513,-1.17872 -0.50204,-0.48022 -1.17872,-0.74215 -0.67667,-0.28377 -1.44065,-0.28377 -0.76399,0 -1.44066,0.28377 -0.67667,0.26193 -1.20055,0.76398 -0.50204,0.48022 -0.82946,1.15689 -0.3056,0.67667 -0.37108,1.48431 z"
         style="font-size:21.828125px;font-family:'Raleway Medium';fill:#2b7c18;fill-opacity:0.98431373;stroke-width:0.26458332"
         id="path941"
         inkscape:connector-curvature="0" />
      <path
         d="m 165.31674,141.15952 q -0.80764,0 -1.50614,-0.26194 -0.6985,-0.28376 -1.22238,-0.76398 -0.50204,-0.48022 -0.80764,-1.11324 -0.28376,-0.65484 -0.28376,-1.41882 0,-0.78582 0.34925,-1.41883 0.34925,-0.65485 0.98226,-1.11324 0.65485,-0.45839 1.52797,-0.72033 0.89495,-0.26193 1.9427,-0.26193 0.82947,0 1.68077,0.15279 0.8513,0.1528 1.50614,0.41474 v -0.91678 q 0,-1.397 -0.78581,-2.18282 -0.78582,-0.80764 -2.22647,-0.80764 -1.72442,0 -3.62347,1.33152 l -0.63302,-1.2442 q 2.20464,-1.48432 4.43111,-1.48432 2.2483,0 3.4925,1.20055 1.26603,1.20055 1.26603,3.38336 v 4.64939 q 0,0.67667 0.61119,0.6985 v 1.65894 q -0.30559,0.0437 -0.50204,0.0655 -0.19646,0.0218 -0.41474,0.0218 -0.56753,0 -0.91678,-0.32742 -0.32742,-0.34925 -0.39291,-0.82947 l -0.0437,-0.80764 q -0.76399,1.02592 -1.94271,1.57162 -1.15689,0.52388 -2.4884,0.52388 z m 0.50204,-1.44066 q 1.02593,0 1.89905,-0.37107 0.89495,-0.39291 1.35335,-1.02593 0.41473,-0.41473 0.41473,-0.85129 v -1.68077 q -1.397,-0.5457 -2.90314,-0.5457 -1.44066,0 -2.35744,0.61119 -0.89495,0.61118 -0.89495,1.59345 0,0.48022 0.17462,0.89495 0.19646,0.41474 0.52388,0.72033 0.34925,0.30559 0.80764,0.48022 0.45839,0.17462 0.98226,0.17462 z"
         style="font-size:21.828125px;font-family:'Raleway Medium';fill:#2b7c18;fill-opacity:0.98431373;stroke-width:0.26458332"
         id="path943"
         inkscape:connector-curvature="0" />
      <path
         d="m 184.3877,140.94124 h -1.92088 v -6.37381 q 0,-1.83357 -0.56753,-2.66304 -0.5457,-0.82946 -1.68076,-0.82946 -0.58936,0 -1.17872,0.24011 -0.58936,0.21828 -1.11324,0.61118 -0.52387,0.39291 -0.91678,0.93861 -0.3929,0.54571 -0.58936,1.20055 v 6.87586 h -1.92087 v -11.39428 h 1.74625 v 2.44475 q 0.67667,-1.20055 1.9427,-1.92088 1.28786,-0.72033 2.794,-0.72033 0.98227,0 1.63711,0.37108 0.65484,0.34925 1.04775,1.0041 0.39291,0.63301 0.5457,1.50614 0.17463,0.87312 0.17463,1.89904 z"
         style="font-size:21.828125px;font-family:'Raleway Medium';fill:#2b7c18;fill-opacity:0.98431373;stroke-width:0.26458332"
         id="path945"
         inkscape:connector-curvature="0" />
    </g>
    <g
       aria-label="Haushaltsauflösungen"
       style="font-size:3.17499995px;fill:#009cff;fill-opacity:1;stroke-width:0.26458332"
       id="text4537">
      <path
         d="m 65.611413,152.85916 v 7.51416 h -0.9525 V 156.9549 H 60.52083 v 3.41842 h -0.9525 v -7.51416 h 0.9525 v 3.24908 h 4.138083 v -3.24908 z"
         style="font-size:10.58333302px;font-family:'Raleway Medium';fill:#009cff;fill-opacity:1;stroke:#0088ff;stroke-width:0.2;stroke-miterlimit:4;stroke-dasharray:none;stroke-opacity:1"
         id="path886"
         inkscape:connector-curvature="0" />
      <path
         d="m 68.610465,160.47915 q -0.391583,0 -0.73025,-0.127 -0.338666,-0.13758 -0.592666,-0.37041 -0.243417,-0.23284 -0.391583,-0.53975 -0.137584,-0.3175 -0.137584,-0.68792 0,-0.381 0.169334,-0.68792 0.169333,-0.3175 0.47625,-0.53975 0.3175,-0.22225 0.740833,-0.34925 0.433916,-0.127 0.941916,-0.127 0.402167,0 0.814917,0.0741 0.41275,0.0741 0.73025,0.20108 v -0.4445 q 0,-0.67733 -0.381,-1.05833 -0.381,-0.39158 -1.0795,-0.39158 -0.836083,0 -1.756833,0.64558 l -0.306917,-0.60325 q 1.068917,-0.71967 2.148417,-0.71967 1.090083,0 1.693333,0.58209 0.613833,0.58208 0.613833,1.64041 v 2.25425 q 0,0.32808 0.296334,0.33867 v 0.80433 q -0.148167,0.0212 -0.243417,0.0317 -0.09525,0.0106 -0.201083,0.0106 -0.275167,0 -0.4445,-0.15875 -0.15875,-0.16933 -0.1905,-0.40216 l -0.02117,-0.39159 q -0.370417,0.49742 -0.941917,0.762 -0.560916,0.254 -1.2065,0.254 z m 0.243417,-0.6985 q 0.497417,0 0.92075,-0.17991 0.433917,-0.1905 0.656167,-0.49742 0.201083,-0.20108 0.201083,-0.41275 v -0.81492 q -0.677333,-0.26458 -1.407583,-0.26458 -0.6985,0 -1.143,0.29633 -0.433917,0.29634 -0.433917,0.77259 0,0.23283 0.08467,0.43391 0.09525,0.20109 0.254,0.34925 0.169333,0.14817 0.391583,0.23284 0.22225,0.0847 0.47625,0.0847 z"
         style="font-size:10.58333302px;font-family:'Raleway Medium';fill:#009cff;fill-opacity:1;stroke:#0088ff;stroke-width:0.2;stroke-miterlimit:4;stroke-dasharray:none;stroke-opacity:1"
         id="path888"
         inkscape:connector-curvature="0" />
      <path
         d="m 74.766658,160.47915 q -0.867833,0 -1.312333,-0.58208 -0.4445,-0.58208 -0.4445,-1.73567 v -3.31258 h 0.931333 v 3.13267 q 0,1.69333 1.17475,1.69333 0.5715,0 1.068917,-0.35983 0.508,-0.37042 0.751417,-1.00542 v -3.46075 h 0.931333 v 4.3815 q 0,0.32808 0.296333,0.33867 v 0.80433 q -0.15875,0.0212 -0.254,0.0212 -0.08467,0.0106 -0.169333,0.0106 -0.275167,0 -0.465667,-0.15875 -0.179916,-0.16933 -0.1905,-0.41275 l -0.02117,-0.64558 q -0.370417,0.62441 -0.973667,0.96308 -0.60325,0.32808 -1.322917,0.32808 z"
         style="font-size:10.58333302px;font-family:'Raleway Medium';fill:#009cff;fill-opacity:1;stroke:#0088ff;stroke-width:0.2;stroke-miterlimit:4;stroke-dasharray:none;stroke-opacity:1"
         id="path890"
         inkscape:connector-curvature="0" />
      <path
         d="m 81.366027,160.47915 q -0.66675,0 -1.312333,-0.20108 -0.645584,-0.21167 -1.11125,-0.60325 l 0.402166,-0.62442 q 0.486834,0.37042 0.973667,0.56092 0.486833,0.17992 1.026583,0.17992 0.60325,0 0.9525,-0.23284 0.359833,-0.24341 0.359833,-0.67733 0,-0.20108 -0.09525,-0.33867 -0.09525,-0.14816 -0.28575,-0.254 -0.1905,-0.10583 -0.486833,-0.1905 -0.296333,-0.0847 -0.687916,-0.17991 -0.497417,-0.127 -0.85725,-0.24342 -0.359834,-0.11642 -0.592667,-0.27517 -0.232833,-0.15875 -0.338667,-0.381 -0.105833,-0.22225 -0.105833,-0.55033 0,-0.41275 0.15875,-0.73025 0.169333,-0.32808 0.455083,-0.53975 0.28575,-0.22225 0.66675,-0.32808 0.391584,-0.11642 0.836084,-0.11642 0.624416,0 1.164166,0.20109 0.53975,0.20108 0.910167,0.52916 l -0.423334,0.56092 q -0.34925,-0.30692 -0.783166,-0.45508 -0.433917,-0.15875 -0.889,-0.15875 -0.508,0 -0.867833,0.22225 -0.34925,0.21166 -0.34925,0.68791 0,0.1905 0.0635,0.3175 0.07408,0.127 0.232833,0.22225 0.15875,0.0952 0.402167,0.16933 0.254,0.0741 0.60325,0.15875 0.550333,0.127 0.952499,0.26459 0.41275,0.127 0.677334,0.30691 0.275166,0.17992 0.402166,0.42334 0.137584,0.24341 0.137584,0.59266 0,0.77259 -0.592667,1.22767 -0.592667,0.45508 -1.598083,0.45508 z"
         style="font-size:10.58333302px;font-family:'Raleway Medium';fill:#009cff;fill-opacity:1;stroke:#0088ff;stroke-width:0.2;stroke-miterlimit:4;stroke-dasharray:none;stroke-opacity:1"
         id="path892"
         inkscape:connector-curvature="0" />
      <path
         d="M 89.453183,160.37332 H 88.52185 v -3.09033 q 0,-0.85725 -0.296334,-1.27 -0.296333,-0.42333 -0.867833,-0.42333 -0.275167,0 -0.550333,0.11641 -0.275167,0.10584 -0.518584,0.29633 -0.232833,0.1905 -0.423333,0.45509 -0.179917,0.26458 -0.275167,0.58208 v 3.33375 h -0.931333 v -7.72583 h 0.931333 v 3.38666 q 0.328084,-0.60324 0.889,-0.94191 0.560917,-0.33867 1.227667,-0.33867 0.486833,0 0.8255,0.17992 0.338667,0.17992 0.53975,0.48683 0.201083,0.30692 0.28575,0.74083 0.09525,0.42334 0.09525,0.91017 z"
         style="font-size:10.58333302px;font-family:'Raleway Medium';fill:#009cff;fill-opacity:1;stroke:#0088ff;stroke-width:0.2;stroke-miterlimit:4;stroke-dasharray:none;stroke-opacity:1"
         id="path894"
         inkscape:connector-curvature="0" />
      <path
         d="m 92.319611,160.47915 q -0.391583,0 -0.730249,-0.127 -0.338667,-0.13758 -0.592667,-0.37041 -0.243417,-0.23284 -0.391583,-0.53975 -0.137584,-0.3175 -0.137584,-0.68792 0,-0.381 0.169334,-0.68792 0.169333,-0.3175 0.47625,-0.53975 0.3175,-0.22225 0.740833,-0.34925 0.433916,-0.127 0.941916,-0.127 0.402167,0 0.814917,0.0741 0.41275,0.0741 0.73025,0.20108 v -0.4445 q 0,-0.67733 -0.381,-1.05833 -0.381,-0.39158 -1.0795,-0.39158 -0.836083,0 -1.756833,0.64558 l -0.306917,-0.60325 q 1.068917,-0.71967 2.148417,-0.71967 1.090083,0 1.693333,0.58209 0.613833,0.58208 0.613833,1.64041 v 2.25425 q 0,0.32808 0.296334,0.33867 v 0.80433 q -0.148167,0.0212 -0.243417,0.0317 -0.09525,0.0106 -0.201083,0.0106 -0.275167,0 -0.4445,-0.15875 -0.15875,-0.16933 -0.1905,-0.40216 l -0.02117,-0.39159 q -0.370417,0.49742 -0.941917,0.762 -0.560916,0.254 -1.2065,0.254 z m 0.243417,-0.6985 q 0.497417,0 0.92075,-0.17991 0.433917,-0.1905 0.656167,-0.49742 0.201083,-0.20108 0.201083,-0.41275 v -0.81492 q -0.677333,-0.26458 -1.407583,-0.26458 -0.6985,0 -1.143,0.29633 -0.433917,0.29634 -0.433917,0.77259 0,0.23283 0.08467,0.43391 0.09525,0.20109 0.254,0.34925 0.169333,0.14817 0.391583,0.23284 0.22225,0.0847 0.47625,0.0847 z"
         style="font-size:10.58333302px;font-family:'Raleway Medium';fill:#009cff;fill-opacity:1;stroke:#0088ff;stroke-width:0.2;stroke-miterlimit:4;stroke-dasharray:none;stroke-opacity:1"
         id="path896"
         inkscape:connector-curvature="0" />
      <path
         d="m 96.793053,152.64749 h 0.931333 v 6.29708 q 0,0.30692 0.15875,0.48683 0.169334,0.16934 0.465667,0.16934 0.116417,0 0.275167,-0.0317 0.15875,-0.0423 0.296333,-0.0953 l 0.148167,0.75141 q -0.232834,0.0952 -0.550334,0.15875 -0.3175,0.0635 -0.560916,0.0635 -0.53975,0 -0.85725,-0.30691 -0.306917,-0.30692 -0.306917,-0.85725 z"
         style="font-size:10.58333302px;font-family:'Raleway Medium';fill:#009cff;fill-opacity:1;stroke:#0088ff;stroke-width:0.2;stroke-miterlimit:4;stroke-dasharray:none;stroke-opacity:1"
         id="path898"
         inkscape:connector-curvature="0" />
      <path
         d="m 102.64729,160.09815 q -0.0847,0.0423 -0.22225,0.10584 -0.13758,0.0529 -0.3175,0.11641 -0.16933,0.0529 -0.381,0.0847 -0.20108,0.0423 -0.42333,0.0423 -0.508,0 -0.87842,-0.27516 -0.37041,-0.28575 -0.37041,-0.87842 v -3.71475 h -0.751421 v -0.73025 h 0.751421 v -1.8415 h 0.93133 v 1.8415 h 1.23825 v 0.73025 h -1.23825 v 3.429 q 0.0212,0.30692 0.20108,0.4445 0.17992,0.13758 0.42334,0.13758 0.27516,0 0.49741,-0.0847 0.23284,-0.0953 0.3175,-0.14817 z"
         style="font-size:10.58333302px;font-family:'Raleway Medium';fill:#009cff;fill-opacity:1;stroke:#0088ff;stroke-width:0.2;stroke-miterlimit:4;stroke-dasharray:none;stroke-opacity:1"
         id="path900"
         inkscape:connector-curvature="0" />
      <path
         d="m 105.44725,160.47915 q -0.66675,0 -1.31234,-0.20108 -0.64558,-0.21167 -1.11125,-0.60325 l 0.40217,-0.62442 q 0.48683,0.37042 0.97367,0.56092 0.48683,0.17992 1.02658,0.17992 0.60325,0 0.9525,-0.23284 0.35983,-0.24341 0.35983,-0.67733 0,-0.20108 -0.0953,-0.33867 -0.0952,-0.14816 -0.28575,-0.254 -0.1905,-0.10583 -0.48683,-0.1905 -0.29633,-0.0847 -0.68792,-0.17991 -0.49741,-0.127 -0.85725,-0.24342 -0.35983,-0.11642 -0.59266,-0.27517 -0.23284,-0.15875 -0.33867,-0.381 -0.10583,-0.22225 -0.10583,-0.55033 0,-0.41275 0.15875,-0.73025 0.16933,-0.32808 0.45508,-0.53975 0.28575,-0.22225 0.66675,-0.32808 0.39158,-0.11642 0.83608,-0.11642 0.62442,0 1.16417,0.20109 0.53975,0.20108 0.91017,0.52916 l -0.42334,0.56092 q -0.34925,-0.30692 -0.78316,-0.45508 -0.43392,-0.15875 -0.889,-0.15875 -0.508,0 -0.86784,0.22225 -0.34925,0.21166 -0.34925,0.68791 0,0.1905 0.0635,0.3175 0.0741,0.127 0.23284,0.22225 0.15875,0.0952 0.40216,0.16933 0.254,0.0741 0.60325,0.15875 0.55034,0.127 0.9525,0.26459 0.41275,0.127 0.67734,0.30691 0.27516,0.17992 0.40216,0.42334 0.13759,0.24341 0.13759,0.59266 0,0.77259 -0.59267,1.22767 -0.59267,0.45508 -1.59808,0.45508 z"
         style="font-size:10.58333302px;font-family:'Raleway Medium';fill:#009cff;fill-opacity:1;stroke:#0088ff;stroke-width:0.2;stroke-miterlimit:4;stroke-dasharray:none;stroke-opacity:1"
         id="path902"
         inkscape:connector-curvature="0" />
      <path
         d="m 110.15831,160.47915 q -0.39158,0 -0.73025,-0.127 -0.33866,-0.13758 -0.59266,-0.37041 -0.24342,-0.23284 -0.39159,-0.53975 -0.13758,-0.3175 -0.13758,-0.68792 0,-0.381 0.16933,-0.68792 0.16934,-0.3175 0.47625,-0.53975 0.3175,-0.22225 0.74084,-0.34925 0.43391,-0.127 0.94191,-0.127 0.40217,0 0.81492,0.0741 0.41275,0.0741 0.73025,0.20108 v -0.4445 q 0,-0.67733 -0.381,-1.05833 -0.381,-0.39158 -1.0795,-0.39158 -0.83608,0 -1.75683,0.64558 l -0.30692,-0.60325 q 1.06892,-0.71967 2.14842,-0.71967 1.09008,0 1.69333,0.58209 0.61383,0.58208 0.61383,1.64041 v 2.25425 q 0,0.32808 0.29634,0.33867 v 0.80433 q -0.14817,0.0212 -0.24342,0.0317 -0.0952,0.0106 -0.20108,0.0106 -0.27517,0 -0.4445,-0.15875 -0.15875,-0.16933 -0.1905,-0.40216 l -0.0212,-0.39159 q -0.37042,0.49742 -0.94192,0.762 -0.56091,0.254 -1.2065,0.254 z m 0.24342,-0.6985 q 0.49742,0 0.92075,-0.17991 0.43392,-0.1905 0.65617,-0.49742 0.20108,-0.20108 0.20108,-0.41275 v -0.81492 q -0.67733,-0.26458 -1.40758,-0.26458 -0.6985,0 -1.143,0.29633 -0.43392,0.29634 -0.43392,0.77259 0,0.23283 0.0847,0.43391 0.0953,0.20109 0.254,0.34925 0.16933,0.14817 0.39158,0.23284 0.22225,0.0847 0.47625,0.0847 z"
         style="font-size:10.58333302px;font-family:'Raleway Medium';fill:#009cff;fill-opacity:1;stroke:#0088ff;stroke-width:0.2;stroke-miterlimit:4;stroke-dasharray:none;stroke-opacity:1"
         id="path904"
         inkscape:connector-curvature="0" />
      <path
         d="m 116.31451,160.47915 q -0.86784,0 -1.31234,-0.58208 -0.4445,-0.58208 -0.4445,-1.73567 v -3.31258 h 0.93134 v 3.13267 q 0,1.69333 1.17475,1.69333 0.5715,0 1.06891,-0.35983 0.508,-0.37042 0.75142,-1.00542 v -3.46075 h 0.93133 v 4.3815 q 0,0.32808 0.29634,0.33867 v 0.80433 q -0.15875,0.0212 -0.254,0.0212 -0.0847,0.0106 -0.16934,0.0106 -0.27516,0 -0.46566,-0.15875 -0.17992,-0.16933 -0.1905,-0.41275 l -0.0212,-0.64558 q -0.37042,0.62441 -0.97367,0.96308 -0.60325,0.32808 -1.32291,0.32808 z"
         style="font-size:10.58333302px;font-family:'Raleway Medium';fill:#009cff;fill-opacity:1;stroke:#0088ff;stroke-width:0.2;stroke-miterlimit:4;stroke-dasharray:none;stroke-opacity:1"
         id="path906"
         inkscape:connector-curvature="0" />
      <path
         d="m 126.67096,160.24632 q -0.0106,0.0106 -0.10583,0.0423 -0.0952,0.0318 -0.254,0.0741 -0.15875,0.0317 -0.34925,0.0529 -0.1905,0.0317 -0.39159,0.0317 -0.56091,0 -0.86783,-0.30691 -0.30691,-0.3175 -0.30691,-0.75142 v -4.86833 q 0,-0.20108 -0.0529,-0.41275 -0.0529,-0.21167 -0.17992,-0.381 -0.11641,-0.16933 -0.32808,-0.27517 -0.20108,-0.10583 -0.51858,-0.10583 -0.58209,0 -0.83609,0.39158 -0.254,0.39159 -0.27516,1.016 v 0.0952 h 1.09008 v 0.73025 h -1.09008 v 4.79425 h -0.93134 v -4.79425 h -0.75141 v -0.73025 h 0.75141 v -0.1905 q 0,-0.96308 0.508,-1.53458 0.51859,-0.58208 1.524,-0.58208 0.508,0 0.889,0.13758 0.381,0.127 0.62442,0.37042 0.254,0.23283 0.381,0.56091 0.127,0.3175 0.127,0.70909 v 4.64608 q 0,0.10583 0.0318,0.22225 0.0317,0.11641 0.10583,0.21166 0.0741,0.0952 0.16933,0.15875 0.10584,0.0529 0.254,0.0529 0.20109,0 0.40217,-0.0635 0.21167,-0.0635 0.22225,-0.0635 z"
         style="font-size:10.58333302px;font-family:'Raleway Medium';fill:#009cff;fill-opacity:1;stroke:#0088ff;stroke-width:0.2;stroke-miterlimit:4;stroke-dasharray:none;stroke-opacity:1"
         id="path908"
         inkscape:connector-curvature="0" />
      <path
         d="m 128.54917,153.76932 v -1.0795 h 0.78317 v 1.0795 z m 1.7145,0 v -1.0795 h 0.78317 v 1.0795 z m -0.46566,6.70983 q -0.62442,0 -1.143,-0.23283 -0.508,-0.23283 -0.87842,-0.62442 -0.35983,-0.39158 -0.56092,-0.91016 -0.20108,-0.51859 -0.20108,-1.09009 0,-0.58208 0.20108,-1.10066 0.21167,-0.51859 0.5715,-0.91017 0.37042,-0.39158 0.87842,-0.62441 0.51858,-0.23284 1.13242,-0.23284 0.61383,0 1.13241,0.23284 0.51859,0.23283 0.87842,0.62441 0.37042,0.39158 0.5715,0.91017 0.21167,0.51858 0.21167,1.10066 0,0.5715 -0.20109,1.09009 -0.20108,0.51858 -0.5715,0.91016 -0.37041,0.39159 -0.889,0.62442 -0.508,0.23283 -1.13241,0.23283 z m -1.83092,-2.84691 q 0,0.43391 0.13758,0.80433 0.14817,0.37042 0.39159,0.64558 0.254,0.27517 0.58208,0.43392 0.33867,0.15875 0.71967,0.15875 0.381,0 0.70908,-0.15875 0.33867,-0.15875 0.59267,-0.43392 0.254,-0.28575 0.39158,-0.65616 0.14817,-0.381 0.14817,-0.81492 0,-0.42333 -0.14817,-0.79375 -0.13758,-0.381 -0.39158,-0.65617 -0.254,-0.28574 -0.59267,-0.44449 -0.32808,-0.15875 -0.70908,-0.15875 -0.381,0 -0.71967,0.16933 -0.32808,0.15875 -0.58208,0.4445 -0.24342,0.27516 -0.39159,0.65616 -0.13758,0.37042 -0.13758,0.80434 z"
         style="font-size:10.58333302px;font-family:'Raleway Medium';fill:#009cff;fill-opacity:1;stroke:#0088ff;stroke-width:0.2;stroke-miterlimit:4;stroke-dasharray:none;stroke-opacity:1"
         id="path910"
         inkscape:connector-curvature="0" />
      <path
         d="m 135.66762,160.47915 q -0.66675,0 -1.31233,-0.20108 -0.64559,-0.21167 -1.11125,-0.60325 l 0.40216,-0.62442 q 0.48684,0.37042 0.97367,0.56092 0.48683,0.17992 1.02658,0.17992 0.60325,0 0.9525,-0.23284 0.35984,-0.24341 0.35984,-0.67733 0,-0.20108 -0.0952,-0.33867 -0.0952,-0.14816 -0.28575,-0.254 -0.1905,-0.10583 -0.48684,-0.1905 -0.29633,-0.0847 -0.68791,-0.17991 -0.49742,-0.127 -0.85725,-0.24342 -0.35984,-0.11642 -0.59267,-0.27517 -0.23283,-0.15875 -0.33867,-0.381 -0.10583,-0.22225 -0.10583,-0.55033 0,-0.41275 0.15875,-0.73025 0.16933,-0.32808 0.45508,-0.53975 0.28575,-0.22225 0.66675,-0.32808 0.39159,-0.11642 0.83609,-0.11642 0.62441,0 1.16416,0.20109 0.53975,0.20108 0.91017,0.52916 l -0.42333,0.56092 q -0.34925,-0.30692 -0.78317,-0.45508 -0.43392,-0.15875 -0.889,-0.15875 -0.508,0 -0.86783,0.22225 -0.34925,0.21166 -0.34925,0.68791 0,0.1905 0.0635,0.3175 0.0741,0.127 0.23283,0.22225 0.15875,0.0952 0.40217,0.16933 0.254,0.0741 0.60325,0.15875 0.55033,0.127 0.9525,0.26459 0.41275,0.127 0.67733,0.30691 0.27517,0.17992 0.40217,0.42334 0.13758,0.24341 0.13758,0.59266 0,0.77259 -0.59267,1.22767 -0.59266,0.45508 -1.59808,0.45508 z"
         style="font-size:10.58333302px;font-family:'Raleway Medium';fill:#009cff;fill-opacity:1;stroke:#0088ff;stroke-width:0.2;stroke-miterlimit:4;stroke-dasharray:none;stroke-opacity:1"
         id="path912"
         inkscape:connector-curvature="0" />
      <path
         d="m 140.66444,160.47915 q -0.86783,0 -1.31233,-0.58208 -0.4445,-0.58208 -0.4445,-1.73567 v -3.31258 h 0.93133 v 3.13267 q 0,1.69333 1.17475,1.69333 0.5715,0 1.06892,-0.35983 0.508,-0.37042 0.75141,-1.00542 v -3.46075 h 0.93134 v 4.3815 q 0,0.32808 0.29633,0.33867 v 0.80433 q -0.15875,0.0212 -0.254,0.0212 -0.0847,0.0106 -0.16933,0.0106 -0.27517,0 -0.46567,-0.15875 -0.17992,-0.16933 -0.1905,-0.41275 l -0.0212,-0.64558 q -0.37041,0.62441 -0.97366,0.96308 -0.60325,0.32808 -1.32292,0.32808 z"
         style="font-size:10.58333302px;font-family:'Raleway Medium';fill:#009cff;fill-opacity:1;stroke:#0088ff;stroke-width:0.2;stroke-miterlimit:4;stroke-dasharray:none;stroke-opacity:1"
         id="path914"
         inkscape:connector-curvature="0" />
      <path
         d="m 150.12131,160.37332 h -0.93133 v -3.09033 q 0,-0.889 -0.27517,-1.29117 -0.26458,-0.40216 -0.81491,-0.40216 -0.28575,0 -0.5715,0.11641 -0.28575,0.10584 -0.53975,0.29633 -0.254,0.1905 -0.4445,0.45509 -0.1905,0.26458 -0.28575,0.58208 v 3.33375 h -0.93134 v -5.5245 h 0.84667 v 1.18533 q 0.32808,-0.58208 0.94192,-0.93133 0.62441,-0.34925 1.35466,-0.34925 0.47625,0 0.79375,0.17992 0.3175,0.16933 0.508,0.48683 0.1905,0.30692 0.26459,0.73025 0.0847,0.42333 0.0847,0.92075 z"
         style="font-size:10.58333302px;font-family:'Raleway Medium';fill:#009cff;fill-opacity:1;stroke:#0088ff;stroke-width:0.2;stroke-miterlimit:4;stroke-dasharray:none;stroke-opacity:1"
         id="path916"
         inkscape:connector-curvature="0" />
      <path
         d="m 153.77091,160.43682 q -0.56092,0 -1.03717,-0.23283 -0.46566,-0.23284 -0.80433,-0.62442 -0.33867,-0.39158 -0.52917,-0.89958 -0.17991,-0.508 -0.17991,-1.05834 0,-0.58208 0.17991,-1.10066 0.1905,-0.52917 0.52917,-0.92075 0.33867,-0.39158 0.80433,-0.61383 0.47625,-0.23284 1.04775,-0.23284 0.6985,0 1.2065,0.33867 0.508,0.33867 0.85725,0.85725 v -1.10067 h 0.8255 v 5.461 q 0,0.59267 -0.22225,1.03717 -0.22225,0.45508 -0.60325,0.762 -0.381,0.30691 -0.89958,0.46566 -0.508,0.15875 -1.09008,0.15875 -0.94192,0 -1.53459,-0.32808 -0.58208,-0.3175 -0.97366,-0.889 l 0.53975,-0.47625 q 0.32808,0.48683 0.84666,0.73025 0.51859,0.24342 1.12184,0.24342 0.381,0 0.71966,-0.10584 0.34925,-0.10583 0.60325,-0.3175 0.254,-0.21166 0.40217,-0.52916 0.15875,-0.3175 0.15875,-0.75142 v -0.97367 q -0.15875,0.254 -0.381,0.46567 -0.21167,0.20108 -0.46567,0.34925 -0.254,0.13758 -0.53975,0.21167 -0.28575,0.0741 -0.58208,0.0741 z m 0.28575,-0.762 q 0.29633,0 0.5715,-0.10583 0.27517,-0.10584 0.508,-0.27517 0.23283,-0.17992 0.39158,-0.40217 0.15875,-0.22225 0.21167,-0.45508 v -1.5875 q -0.11642,-0.28575 -0.30692,-0.51858 -0.17991,-0.23284 -0.41275,-0.40217 -0.23283,-0.17991 -0.508,-0.27516 -0.26458,-0.0953 -0.53975,-0.0953 -0.42333,0 -0.762,0.17991 -0.32808,0.17992 -0.56091,0.47625 -0.23284,0.29633 -0.35984,0.67733 -0.127,0.37042 -0.127,0.75142 0,0.41275 0.14817,0.78317 0.14817,0.37041 0.40217,0.64558 0.254,0.27517 0.59266,0.4445 0.34925,0.15875 0.75142,0.15875 z"
         style="font-size:10.58333302px;font-family:'Raleway Medium';fill:#009cff;fill-opacity:1;stroke:#0088ff;stroke-width:0.2;stroke-miterlimit:4;stroke-dasharray:none;stroke-opacity:1"
         id="path918"
         inkscape:connector-curvature="0" />
      <path
         d="m 160.60824,160.47915 q -0.62442,0 -1.143,-0.22225 -0.51859,-0.23283 -0.889,-0.62441 -0.37042,-0.39159 -0.58209,-0.91017 -0.20108,-0.52917 -0.20108,-1.11125 0,-0.58208 0.20108,-1.10067 0.21167,-0.51858 0.58209,-0.91016 0.381,-0.39158 0.89958,-0.61383 0.51858,-0.23284 1.143,-0.23284 0.62442,0 1.13242,0.23284 0.51858,0.23283 0.87841,0.62441 0.35984,0.381 0.55034,0.89958 0.20108,0.508 0.20108,1.05834 0,0.11641 -0.0106,0.21166 0,0.0953 -0.0106,0.14817 h -4.58258 q 0.0317,0.41275 0.1905,0.75142 0.15875,0.33866 0.41275,0.58208 0.254,0.24342 0.5715,0.381 0.32808,0.13758 0.68792,0.13758 0.254,0 0.49741,-0.0635 0.24342,-0.0741 0.45509,-0.1905 0.21166,-0.11641 0.37041,-0.28575 0.16934,-0.16933 0.254,-0.381 l 0.80434,0.22225 q -0.13759,0.30692 -0.381,0.56092 -0.23284,0.254 -0.55034,0.4445 -0.30691,0.17992 -0.68791,0.28575 -0.381,0.10583 -0.79375,0.10583 z m 1.89441,-3.2385 q -0.0317,-0.39158 -0.20108,-0.71966 -0.15875,-0.33867 -0.41275,-0.5715 -0.24342,-0.23283 -0.5715,-0.35983 -0.32808,-0.13759 -0.6985,-0.13759 -0.37042,0 -0.6985,0.13759 -0.32808,0.127 -0.58208,0.37041 -0.24342,0.23283 -0.40217,0.56092 -0.14817,0.32808 -0.17992,0.71966 z"
         style="font-size:10.58333302px;font-family:'Raleway Medium';fill:#009cff;fill-opacity:1;stroke:#0088ff;stroke-width:0.2;stroke-miterlimit:4;stroke-dasharray:none;stroke-opacity:1"
         id="path920"
         inkscape:connector-curvature="0" />
      <path
         d="m 169.22092,160.37332 h -0.93133 v -3.09033 q 0,-0.889 -0.27517,-1.29117 -0.26458,-0.40216 -0.81492,-0.40216 -0.28575,0 -0.5715,0.11641 -0.28575,0.10584 -0.53975,0.29633 -0.254,0.1905 -0.4445,0.45509 -0.1905,0.26458 -0.28575,0.58208 v 3.33375 h -0.93133 v -5.5245 h 0.84667 v 1.18533 q 0.32808,-0.58208 0.94191,-0.93133 0.62442,-0.34925 1.35467,-0.34925 0.47625,0 0.79375,0.17992 0.3175,0.16933 0.508,0.48683 0.1905,0.30692 0.26458,0.73025 0.0847,0.42333 0.0847,0.92075 z"
         style="font-size:10.58333302px;font-family:'Raleway Medium';fill:#009cff;fill-opacity:1;stroke:#0088ff;stroke-width:0.2;stroke-miterlimit:4;stroke-dasharray:none;stroke-opacity:1"
         id="path922"
         inkscape:connector-curvature="0" />
    </g>
    <path
       id="path4603"
       d="m 158.31683,181.72017 a 9.4304979,9.4238124 0 0 0 -9.43049,9.42423 9.4304979,9.4238124 0 0 0 9.43049,9.42372 9.4304979,9.4238124 0 0 0 3.15538,-0.55553 l 11.04331,-2.79827 -7.91997,0.94826 a 9.4304979,9.4238124 0 0 0 0.0351,-0.0326 l 11.19783,-3.14606 -9.74985,1.49448 a 9.4304979,9.4238124 0 0 0 1.66864,-5.33404 9.4304979,9.4238124 0 0 0 -9.43048,-9.42423 z m 0.0625,2.70164 a 6.6753086,6.5584162 0 0 1 6.67508,6.55826 6.6753086,6.5584162 0 0 1 -6.67508,6.55878 6.6753086,6.5584162 0 0 1 -6.6756,-6.55878 6.6753086,6.5584162 0 0 1 6.6756,-6.55826 z m -1.5038,1.94356 c -1.64393,-0.04 -3.33478,1.28069 -3.55846,2.58279 -0.27529,1.60258 -0.25875,2.4264 1.11157,4.01164 -0.49502,-1.49108 -0.28393,-2.50079 0.10852,-3.59875 0.39245,-1.09796 1.23079,-2.54296 3.45046,-2.73368 -0.35574,-0.17109 -0.73272,-0.25278 -1.11209,-0.262 z"
       style="fill:#2b7c18;fill-opacity:1;stroke-width:0.24860327"
       inkscape:connector-curvature="0"
       inkscape:export-xdpi="400"
       inkscape:export-ydpi="400" />
  </g>
</svg>
